<?xml version="1.0" encoding="utf-8"?>
<!-- Generator: Adobe Illustrator 15.0.0, SVG Export Plug-In . SVG Version: 6.00 Build 0)  -->

<svg version="1.1" id="Layer_1" xmlns="http://www.w3.org/2000/svg" xmlns:xlink="http://www.w3.org/1999/xlink" x="0px" y="0px"
	 width="170px" height="23px" viewBox="0 0 170 23" enable-background="new 0 0 170 23" xml:space="preserve">
<g>
	<path fill="#FFFFFF" d="M71,14.7h10.7L76,5.6L65.7,22l-4.7,0L73.5,2.3C74.1,1.5,75,1,76,1c1,0,1.9,0.5,2.4,1.2L91.1,22l-4.7,0
		l-2.2-3.7H73.3L71,14.7z M119.9,18.3V1.2h-4V20c0,0.5,0.2,1,0.6,1.4c0.4,0.4,0.9,0.6,1.5,0.6h18.2l2.4-3.7H119.9z M53.8,15.3
		c3.9,0,7-3.2,7-7c0-3.9-3.1-7-7-7H36.3V22h4V4.9h13.2c1.9,0,3.4,1.5,3.4,3.4c0,1.9-1.5,3.4-3.4,3.4l-11.3,0L54.2,22H60l-8-6.7
		L53.8,15.3z M11.7,22C5.9,22,1.3,17.3,1.3,11.6c0-5.7,4.7-10.4,10.4-10.4h12.1c5.7,0,10.4,4.7,10.4,10.4c0,5.7-4.7,10.4-10.4,10.4
		L11.7,22z M23.5,18.3c3.7,0,6.7-3,6.7-6.7c0-3.7-3-6.7-6.7-6.7l-11.5,0c-3.7,0-6.7,3-6.7,6.7c0,3.7,3,6.7,6.7,6.7H23.5z M99.4,22
		C93.7,22,89,17.3,89,11.6c0-5.7,4.7-10.4,10.4-10.4h14.4l-2.4,3.7l-11.7,0c-3.7,0-6.7,3-6.7,6.7c0,3.7,3,6.7,6.7,6.7h14.4l-2.3,3.7
		H99.4z M148.3,18.3c-3.1,0-5.7-2.1-6.5-4.9h17.1l2.4-3.7l-19.5,0c0.8-2.8,3.4-4.9,6.5-4.9l11.7,0l2.4-3.7H148
		c-5.7,0-10.4,4.7-10.4,10.4c0,5.7,4.7,10.4,10.4,10.4h12.3l2.3-3.7H148.3z"/>
	<path fill="#FFFFFF" d="M164.6,3.4c0-1,0.8-1.8,1.8-1.8c1,0,1.8,0.8,1.8,1.8c0,1-0.8,1.8-1.8,1.8C165.4,5.3,164.6,4.4,164.6,3.4z
		 M166.4,5.8c1.3,0,2.3-1,2.3-2.3c0-1.3-1-2.3-2.3-2.3c-1.3,0-2.3,1-2.3,2.3C164.1,4.7,165.1,5.8,166.4,5.8z M166.2,2
		c0.4,0,0.5,0,0.7,0.1c0.5,0.2,0.5,0.6,0.5,0.7c0,0,0,0.1,0,0.2c0,0.1-0.1,0.3-0.3,0.4c0,0,0,0-0.1,0.1l0.6,1.1h-0.6l-0.5-1H166v1
		h-0.5V2H166.2z M166.3,3.2c0.2,0,0.3,0,0.4-0.2c0-0.1,0.1-0.1,0.1-0.2c0-0.1-0.1-0.3-0.2-0.3c-0.1,0-0.2,0-0.5,0H166v0.8H166.3z"/>
</g>
</svg>
